{
  "accessors": [
    {
      "bufferView": 2,
      "componentType": 5126,
      "count": 924,
      "max": [
        1.1527199745178223,
        1.1527199745178223,
        3.1191599369049072
      ],
      "min": [
        -1.1527199745178223,
        -1.1527199745178223,
        -1.0
      ],
      "type": "VEC3"
    },
    {
      "bufferView": 2,
      "byteOffset": 11088,
      "componentType": 5126,
      "count": 924,
      "max": [
        0.9993810653686523,
        0.9993810653686523,
        0.9622504711151123
      ],
      "min": [
        -0.9993810653686523,
        -0.9993810653686523,
        -1.0
      ],
      "type": "VEC3"
    },
    {
      "bufferView": 1,
      "componentType": 5126,
      "count": 924,
      "max": [
        0.6964700222015381,
        0.8967700004577637
      ],
      "min": [
        0.38988998532295227,
        0.12201999872922897
      ],
      "type": "VEC2"
    },
    {
      "bufferView": 0,
      "componentType": 5125,
      "count": 1428,
      "type": "SCALAR"
    },
    {
      "bufferView": 2,
      "byteOffset": 22176,
      "componentType": 5126,
      "count": 924,
      "max": [
        1.1527199745178223,
        1.1527199745178223,
        3.1285300254821777
      ],
      "min": [
        -1.1527199745178223,
        -1.1527199745178223,
        -1.0
      ],
      "type": "VEC3"
    },
    {
      "bufferView": 2,
      "byteOffset": 33264,
      "componentType": 5126,
      "count": 924,
      "max": [
        0.9994296431541443,
        0.9992941617965698,
        0.9685508608818054
      ],
      "min": [
        -0.9993175864219666,
        -0.9994511008262634,
        -1.0
      ],
      "type": "VEC3"
    },
    {
      "bufferView": 1,
      "byteOffset": 7392,
      "componentType": 5126,
      "count": 924,
      "max": [
        0.7400000095367432,
        0.8650000095367432
      ],
      "min": [
        0.25999999046325684,
        0.09764999896287918
      ],
      "type": "VEC2"
    },
    {
      "bufferView": 0,
      "byteOffset": 5712,
      "componentType": 5125,
      "count": 1428,
      "type": "SCALAR"
    },
    {
      "bufferView": 2,
      "byteOffset": 44352,
      "componentType": 5126,
      "count": 926,
      "max": [
        1.2746200561523438,
        0.9705700278282166,
        3.124959945678711
      ],
      "min": [
        -0.9975500106811523,
        -1.3015999794006348,
        -1.0
      ],
      "type": "VEC3"
    },
    {
      "bufferView": 2,
      "byteOffset": 55464,
      "componentType": 5126,
      "count": 926,
      "max": [
        0.9841983318328857,
        0.9841983318328857,
        0.9659280180931091
      ],
      "min": [
        -0.9841983318328857,
        -0.9841983318328857,
        -1.0
      ],
      "type": "VEC3"
    },
    {
      "bufferView": 1,
      "byteOffset": 14784,
      "componentType": 5126,
      "count": 926,
      "max": [
        0.7087500095367432,
        0.8337500095367432
      ],
      "min": [
        0.22875000536441803,
        0.097680002450943
      ],
      "type": "VEC2"
    },
    {
      "bufferView": 0,
      "byteOffset": 11424,
      "componentType": 5125,
      "count": 1428,
      "type": "SCALAR"
    },
    {
      "bufferView": 2,
      "byteOffset": 66576,
      "componentType": 5126,
      "count": 926,
      "max": [
        1.2746200561523438,
        0.9705700278282166,
        3.124959945678711
      ],
      "min": [
        -0.9975500106811523,
        -1.3015999794006348,
        -1.0
      ],
      "type": "VEC3"
    },
    {
      "bufferView": 2,
      "byteOffset": 77688,
      "componentType": 5126,
      "count": 926,
      "max": [
        0.9841983318328857,
        0.9841983318328857,
        0.9659280180931091
      ],
      "min": [
        -0.9841983318328857,
        -0.9841983318328857,
        -1.0
      ],
      "type": "VEC3"
    },
    {
      "bufferView": 1,
      "byteOffset": 22192,
      "componentType": 5126,
      "count": 926,
      "max": [
        0.7087500095367432,
        0.8337500095367432
      ],
      "min": [
        0.22875000536441803,
        0.097680002450943
      ],
      "type": "VEC2"
    },
    {
      "bufferView": 0,
      "byteOffset": 17136,
      "componentType": 5125,
      "count": 1428,
      "type": "SCALAR"
    },
    {
      "bufferView": 2,
      "byteOffset": 88800,
      "componentType": 5126,
      "count": 924,
      "max": [
        1.1527199745178223,
        1.1527199745178223,
        3.1285300254821777
      ],
      "min": [
        -1.1527199745178223,
        -1.1527199745178223,
        -1.0
      ],
      "type": "VEC3"
    },
    {
      "bufferView": 2,
      "byteOffset": 99888,
      "componentType": 5126,
      "count": 924,
      "max": [
        0.9994296431541443,
        0.9992941617965698,
        0.9685508608818054
      ],
      "min": [
        -0.9993175864219666,
        -0.9994511008262634,
        -1.0
      ],
      "type": "VEC3"
    },
    {
      "bufferView": 1,
      "byteOffset": 29600,
      "componentType": 5126,
      "count": 924,
      "max": [
        0.7400000095367432,
        0.8650000095367432
      ],
      "min": [
        0.25999999046325684,
        0.09764999896287918
      ],
      "type": "VEC2"
    },
    {
      "bufferView": 0,
      "byteOffset": 22848,
      "componentType": 5125,
      "count": 1428,
      "type": "SCALAR"
    },
    {
      "bufferView": 2,
      "byteOffset": 110976,
      "componentType": 5126,
      "count": 924,
      "max": [
        1.1527199745178223,
        1.1527199745178223,
        3.1191599369049072
      ],
      "min": [
        -1.1527199745178223,
        -1.1527199745178223,
        -1.0
      ],
      "type": "VEC3"
    },
    {
      "bufferView": 2,
      "byteOffset": 122064,
      "componentType": 5126,
      "count": 924,
      "max": [
        0.9993810653686523,
        0.9993810653686523,
        0.9622504711151123
      ],
      "min": [
        -0.9993810653686523,
        -0.9993810653686523,
        -1.0
      ],
      "type": "VEC3"
    },
    {
      "bufferView": 1,
      "byteOffset": 36992,
      "componentType": 5126,
      "count": 924,
      "max": [
        0.6964700222015381,
        0.8967700004577637
      ],
      "min": [
        0.38988998532295227,
        0.12201999872922897
      ],
      "type": "VEC2"
    },
    {
      "bufferView": 0,
      "byteOffset": 28560,
      "componentType": 5125,
      "count": 1428,
      "type": "SCALAR"
    },
    {
      "bufferView": 2,
      "byteOffset": 133152,
      "componentType": 5126,
      "count": 924,
      "max": [
        1.1527199745178223,
        1.1527199745178223,
        3.1191599369049072
      ],
      "min": [
        -1.1527199745178223,
        -1.1527199745178223,
        -1.0
      ],
      "type": "VEC3"
    },
    {
      "bufferView": 2,
      "byteOffset": 144240,
      "componentType": 5126,
      "count": 924,
      "max": [
        0.9993810653686523,
        0.9993810653686523,
        0.9622504711151123
      ],
      "min": [
        -0.9993810653686523,
        -0.9993810653686523,
        -1.0
      ],
      "type": "VEC3"
    },
    {
      "bufferView": 1,
      "byteOffset": 44384,
      "componentType": 5126,
      "count": 924,
      "max": [
        0.6964700222015381,
        0.8967700004577637
      ],
      "min": [
        0.38988998532295227,
        0.12201999872922897
      ],
      "type": "VEC2"
    },
    {
      "bufferView": 0,
      "byteOffset": 34272,
      "componentType": 5125,
      "count": 1428,
      "type": "SCALAR"
    },
    {
      "bufferView": 2,
      "byteOffset": 155328,
      "componentType": 5126,
      "count": 924,
      "max": [
        1.1527199745178223,
        1.1527199745178223,
        3.1285300254821777
      ],
      "min": [
        -1.1527199745178223,
        -1.1527199745178223,
        -1.0
      ],
      "type": "VEC3"
    },
    {
      "bufferView": 2,
      "byteOffset": 166416,
      "componentType": 5126,
      "count": 924,
      "max": [
        0.9994296431541443,
        0.9992941617965698,
        0.9685508608818054
      ],
      "min": [
        -0.9993175864219666,
        -0.9994511008262634,
        -1.0
      ],
      "type": "VEC3"
    },
    {
      "bufferView": 1,
      "byteOffset": 51776,
      "componentType": 5126,
      "count": 924,
      "max": [
        0.7400000095367432,
        0.8650000095367432
      ],
      "min": [
        0.25999999046325684,
        0.09764999896287918
      ],
      "type": "VEC2"
    },
    {
      "bufferView": 0,
      "byteOffset": 39984,
      "componentType": 5125,
      "count": 1428,
      "type": "SCALAR"
    },
    {
      "bufferView": 2,
      "byteOffset": 177504,
      "componentType": 5126,
      "count": 926,
      "max": [
        1.2746200561523438,
        0.9705700278282166,
        3.124959945678711
      ],
      "min": [
        -0.9975500106811523,
        -1.3015999794006348,
        -1.0
      ],
      "type": "VEC3"
    },
    {
      "bufferView": 2,
      "byteOffset": 188616,
      "componentType": 5126,
      "count": 926,
      "max": [
        0.9841983318328857,
        0.9841983318328857,
        0.9659280180931091
      ],
      "min": [
        -0.9841983318328857,
        -0.9841983318328857,
        -1.0
      ],
      "type": "VEC3"
    },
    {
      "bufferView": 1,
      "byteOffset": 59168,
      "componentType": 5126,
      "count": 926,
      "max": [
        0.7087500095367432,
        0.8337500095367432
      ],
      "min": [
        0.22875000536441803,
        0.097680002450943
      ],
      "type": "VEC2"
    },
    {
      "bufferView": 0,
      "byteOffset": 45696,
      "componentType": 5125,
      "count": 1428,
      "type": "SCALAR"
    },
    {
      "bufferView": 2,
      "byteOffset": 199728,
      "componentType": 5126,
      "count": 924,
      "max": [
        1.1527199745178223,
        1.1527199745178223,
        3.1285300254821777
      ],
      "min": [
        -1.1527199745178223,
        -1.1527199745178223,
        -1.0
      ],
      "type": "VEC3"
    },
    {
      "bufferView": 2,
      "byteOffset": 210816,
      "componentType": 5126,
      "count": 924,
      "max": [
        0.9994296431541443,
        0.9992941617965698,
        0.9685508608818054
      ],
      "min": [
        -0.9993175864219666,
        -0.9994511008262634,
        -1.0
      ],
      "type": "VEC3"
    },
    {
      "bufferView": 1,
      "byteOffset": 66576,
      "componentType": 5126,
      "count": 924,
      "max": [
        0.7400000095367432,
        0.8650000095367432
      ],
      "min": [
        0.25999999046325684,
        0.09764999896287918
      ],
      "type": "VEC2"
    },
    {
      "bufferView": 0,
      "byteOffset": 51408,
      "componentType": 5125,
      "count": 1428,
      "type": "SCALAR"
    },
    {
      "bufferView": 2,
      "byteOffset": 221904,
      "componentType": 5126,
      "count": 192,
      "max": [
        1.0,
        1.0,
        0.0
      ],
      "min": [
        -1.0,
        -1.0,
        -0.0289900004863739
      ],
      "type": "VEC3"
    },
    {
      "bufferView": 2,
      "byteOffset": 224208,
      "componentType": 5126,
      "count": 192,
      "max": [
        0.9951844215393066,
        0.9951844215393066,
        1.0
      ],
      "min": [
        -0.9951844215393066,
        -0.9951844215393066,
        -1.0
      ],
      "type": "VEC3"
    },
    {
      "bufferView": 0,
      "byteOffset": 57120,
      "componentType": 5125,
      "count": 372,
      "type": "SCALAR"
    }
  ],
  "asset": {
    "extras": {
      "author": "gusnk (https://sketchfab.com/gusnk)",
      "license": "CC-BY-4.0 (http://creativecommons.org/licenses/by/4.0/)",
      "source": "https://sketchfab.com/3d-models/trees-4f78fea8200245209bfeac2d461b3f02",
      "title": "Trees"
    },
    "generator": "Sketchfab-12.65.0",
    "version": "2.0"
  },
  "bufferViews": [
    {
      "buffer": 0,
      "byteLength": 58608,
      "name": "floatBufferViews",
      "target": 34963
    },
    {
      "buffer": 0,
      "byteLength": 73968,
      "byteOffset": 58608,
      "byteStride": 8,
      "name": "floatBufferViews",
      "target": 34962
    },
    {
      "buffer": 0,
      "byteLength": 226512,
      "byteOffset": 132576,
      "byteStride": 12,
      "name": "floatBufferViews",
      "target": 34962
    }
  ],
  "buffers": [
    {
      "byteLength": 359088,
      "uri": "scene.bin"
    }
  ],
  "extensionsRequired": [
    "KHR_materials_pbrSpecularGlossiness"
  ],
  "extensionsUsed": [
    "KHR_materials_pbrSpecularGlossiness"
  ],
  "images": [
    {
      "uri": "textures/Arvore.001_diffuse.png"
    },
    {
      "uri": "textures/Arvore_diffuse.png"
    },
    {
      "uri": "textures/Material_diffuse.png"
    }
  ],
  "materials": [
    {
      "doubleSided": true,
      "extensions": {
        "KHR_materials_pbrSpecularGlossiness": {
          "diffuseFactor": [
            1.0,
            1.0,
            1.0,
            1.0
          ],
          "glossinessFactor": 0.0,
          "specularFactor": [
            0.0,
            0.0,
            0.0
          ]
        }
      },
      "name": "Root"
    },
    {
      "doubleSided": true,
      "extensions": {
        "KHR_materials_pbrSpecularGlossiness": {
          "diffuseFactor": [
            1.0,
            1.0,
            1.0,
            1.0
          ],
          "diffuseTexture": {
            "index": 0
          },
          "glossinessFactor": 0.4,
          "specularFactor": [
            0.0,
            0.0,
            0.0
          ]
        }
      },
      "name": "Arvore.001"
    },
    {
      "doubleSided": true,
      "extensions": {
        "KHR_materials_pbrSpecularGlossiness": {
          "diffuseFactor": [
            1.0,
            1.0,
            1.0,
            1.0
          ],
          "diffuseTexture": {
            "index": 1
          },
          "glossinessFactor": 0.4,
          "specularFactor": [
            0.0,
            0.0,
            0.0
          ]
        }
      },
      "name": "Arvore"
    },
    {
      "doubleSided": true,
      "extensions": {
        "KHR_materials_pbrSpecularGlossiness": {
          "diffuseFactor": [
            1.0,
            1.0,
            1.0,
            1.0
          ],
          "diffuseTexture": {
            "index": 2
          },
          "glossinessFactor": 0.4,
          "specularFactor": [
            0.0,
            0.0,
            0.0
          ]
        }
      },
      "name": "Material"
    }
  ],
  "meshes": [
    {
      "name": "Roxa.002_0",
      "primitives": [
        {
          "attributes": {
            "NORMAL": 1,
            "POSITION": 0,
            "TEXCOORD_0": 2
          },
          "indices": 3,
          "material": 3,
          "mode": 4
        }
      ]
    },
    {
      "name": "Amarela.002_0",
      "primitives": [
        {
          "attributes": {
            "NORMAL": 5,
            "POSITION": 4,
            "TEXCOORD_0": 6
          },
          "indices": 7,
          "material": 1,
          "mode": 4
        }
      ]
    },
    {
      "name": "Verde.002_0",
      "primitives": [
        {
          "attributes": {
            "NORMAL": 9,
            "POSITION": 8,
            "TEXCOORD_0": 10
          },
          "indices": 11,
          "material": 2,
          "mode": 4
        }
      ]
    },
    {
      "name": "Verde.001_0",
      "primitives": [
        {
          "attributes": {
            "NORMAL": 13,
            "POSITION": 12,
            "TEXCOORD_0": 14
          },
          "indices": 15,
          "material": 2,
          "mode": 4
        }
      ]
    },
    {
      "name": "Amarela.003_0",
      "primitives": [
        {
          "attributes": {
            "NORMAL": 17,
            "POSITION": 16,
            "TEXCOORD_0": 18
          },
          "indices": 19,
          "material": 1,
          "mode": 4
        }
      ]
    },
    {
      "name": "Roxa_0",
      "primitives": [
        {
          "attributes": {
            "NORMAL": 21,
            "POSITION": 20,
            "TEXCOORD_0": 22
          },
          "indices": 23,
          "material": 3,
          "mode": 4
        }
      ]
    },
    {
      "name": "Roxa.001_0",
      "primitives": [
        {
          "attributes": {
            "NORMAL": 25,
            "POSITION": 24,
            "TEXCOORD_0": 26
          },
          "indices": 27,
          "material": 3,
          "mode": 4
        }
      ]
    },
    {
      "name": "Amarela_0",
      "primitives": [
        {
          "attributes": {
            "NORMAL": 29,
            "POSITION": 28,
            "TEXCOORD_0": 30
          },
          "indices": 31,
          "material": 1,
          "mode": 4
        }
      ]
    },
    {
      "name": "Verde_0",
      "primitives": [
        {
          "attributes": {
            "NORMAL": 33,
            "POSITION": 32,
            "TEXCOORD_0": 34
          },
          "indices": 35,
          "material": 2,
          "mode": 4
        }
      ]
    },
    {
      "name": "Amarela.001_0",
      "primitives": [
        {
          "attributes": {
            "NORMAL": 37,
            "POSITION": 36,
            "TEXCOORD_0": 38
          },
          "indices": 39,
          "material": 1,
          "mode": 4
        }
      ]
    },
    {
      "name": "Circle_0",
      "primitives": [
        {
          "attributes": {
            "NORMAL": 41,
            "POSITION": 40
          },
          "indices": 42,
          "material": 0,
          "mode": 4
        }
      ]
    }
  ],
  "nodes": [
    {
      "children": [
        1
      ],
      "matrix": [
        1.0,
        0.0,
        0.0,
        0.0,
        0.0,
        2.220446049250313e-16,
        -1.0,
        0.0,
        0.0,
        1.0,
        2.220446049250313e-16,
        0.0,
        0.0,
        0.0,
        0.0,
        1.0
      ],
      "name": "Sketchfab_model"
    },
    {
      "children": [
        2,
        4,
        6,
        8,
        10,
        12,
        14,
        16,
        18,
        20,
        22,
        24
      ],
      "name": "Root"
    },
    {
      "children": [
        3
      ],
      "matrix": [
        1.2950199999999998,
        0.0,
        0.0,
        0.0,
        0.0,
        1.2950199999999998,
        0.0,
        0.0,
        0.0,
        0.0,
        1.2950199999999998,
        0.0,
        -3.1,
        2.5,
        1.3017299999999998,
        1.0
      ],
      "name": "Roxa.002"
    },
    {
      "mesh": 0,
      "name": "Roxa.002_0"
    },
    {
      "children": [
        5
      ],
      "matrix": [
        0.17734000000000003,
        -0.40412000000000003,
        -0.8973500000000001,
        0.0,
        0.97989,
        -0.012260000000000002,
        0.19917,
        0.0,
        -0.09149000000000003,
        -0.9146200000000001,
        0.3938200000000001,
        0.0,
        -2.4,
        2.0,
        -1.0,
        1.0
      ],
      "name": "Sun"
    },
    {
      "name": "Sun"
    },
    {
      "children": [
        7
      ],
      "matrix": [
        1.20437,
        0.0,
        0.0,
        0.0,
        0.0,
        1.20437,
        0.0,
        0.0,
        0.0,
        0.0,
        1.20437,
        0.0,
        5.1,
        -0.5,
        1.2017299999999997,
        1.0
      ],
      "name": "Amarela.002"
    },
    {
      "mesh": 1,
      "name": "Amarela.002_0"
    },
    {
      "children": [
        9
      ],
      "matrix": [
        0.40221,
        -1.50107,
        0.0,
        0.0,
        1.50107,
        0.40221,
        0.0,
        0.0,
        0.0,
        0.0,
        1.55402,
        0.0,
        2.0,
        0.5,
        1.6017299999999999,
        1.0
      ],
      "name": "Verde.002"
    },
    {
      "mesh": 2,
      "name": "Verde.002_0"
    },
    {
      "children": [
        11
      ],
      "matrix": [
        -1.3458199999999998,
        -0.77701,
        0.0,
        0.0,
        0.77701,
        -1.3458199999999998,
        0.0,
        0.0,
        0.0,
        0.0,
        1.55402,
        0.0,
        0.6248600000000001,
        3.45089,
        1.6017299999999999,
        1.0
      ],
      "name": "Verde.001"
    },
    {
      "mesh": 3,
      "name": "Verde.001_0"
    },
    {
      "children": [
        13
      ],
      "matrix": [
        0.31171000000000004,
        -1.16333,
        0.0,
        0.0,
        1.16333,
        0.31171000000000004,
        0.0,
        0.0,
        0.0,
        0.0,
        1.20437,
        0.0,
        4.00168,
        3.22907,
        1.2017299999999997,
        1.0
      ],
      "name": "Amarela.003"
    },
    {
      "mesh": 4,
      "name": "Amarela.003_0"
    },
    {
      "children": [
        15
      ],
      "matrix": [
        -0.64751,
        1.1215199999999999,
        0.0,
        0.0,
        -1.1215199999999999,
        -0.64751,
        0.0,
        0.0,
        0.0,
        0.0,
        1.2950199999999998,
        0.0,
        3.8734599999999997,
        -2.67996,
        1.4017299999999997,
        1.0
      ],
      "name": "Roxa"
    },
    {
      "mesh": 5,
      "name": "Roxa_0"
    },
    {
      "children": [
        17
      ],
      "matrix": [
        1.29009,
        0.11287000000000001,
        0.0,
        0.0,
        -0.11287000000000001,
        1.29009,
        0.0,
        0.0,
        0.0,
        0.0,
        1.2950199999999998,
        0.0,
        -2.71825,
        -3.9390599999999996,
        1.3017299999999998,
        1.0
      ],
      "name": "Roxa.001"
    },
    {
      "mesh": 6,
      "name": "Roxa.001_0"
    },
    {
      "children": [
        19
      ],
      "matrix": [
        -0.31171000000000004,
        -1.16333,
        0.0,
        0.0,
        1.16333,
        -0.31171000000000004,
        0.0,
        0.0,
        0.0,
        0.0,
        1.20437,
        0.0,
        0.6695700000000001,
        -3.36016,
        1.2017299999999997,
        1.0
      ],
      "name": "Amarela"
    },
    {
      "mesh": 7,
      "name": "Amarela_0"
    },
    {
      "children": [
        21
      ],
      "matrix": [
        -0.40221,
        -1.50107,
        0.0,
        0.0,
        1.50107,
        -0.40221,
        0.0,
        0.0,
        0.0,
        0.0,
        1.55402,
        0.0,
        -1.0513199999999998,
        -0.9007900000000001,
        1.6017299999999999,
        1.0
      ],
      "name": "Verde"
    },
    {
      "mesh": 8,
      "name": "Verde_0"
    },
    {
      "children": [
        23
      ],
      "matrix": [
        0.6908000000000002,
        0.9865599999999999,
        0.0,
        0.0,
        -0.9865599999999999,
        0.6908000000000002,
        0.0,
        0.0,
        0.0,
        0.0,
        1.20437,
        0.0,
        -4.8,
        -0.1,
        1.2017299999999997,
        1.0
      ],
      "name": "Amarela.001"
    },
    {
      "mesh": 9,
      "name": "Amarela.001_0"
    },
    {
      "children": [
        25
      ],
      "matrix": [
        6.9,
        0.0,
        0.0,
        0.0,
        0.0,
        6.9,
        0.0,
        0.0,
        0.0,
        0.0,
        6.9,
        0.0,
        0.0,
        0.0,
        0.0,
        1.0
      ],
      "name": "Circle"
    },
    {
      "mesh": 10,
      "name": "Circle_0"
    }
  ],
  "samplers": [
    {
      "magFilter": 9729,
      "minFilter": 9987,
      "wrapS": 10497,
      "wrapT": 10497
    }
  ],
  "scene": 0,
  "scenes": [
    {
      "name": "Sketchfab_Scene",
      "nodes": [
        0
      ]
    }
  ],
  "textures": [
    {
      "sampler": 0,
      "source": 0
    },
    {
      "sampler": 0,
      "source": 1
    },
    {
      "sampler": 0,
      "source": 2
    }
  ]
}
